<?xml version="1.0" encoding="iso-8859-1"?>
<!-- Generator: Adobe Illustrator 16.0.0, SVG Export Plug-In . SVG Version: 6.00 Build 0)  -->
<!DOCTYPE svg PUBLIC "-//W3C//DTD SVG 1.1//EN" "http://www.w3.org/Graphics/SVG/1.1/DTD/svg11.dtd">
<svg version="1.1" id="Capa_1" xmlns="http://www.w3.org/2000/svg" xmlns:xlink="http://www.w3.org/1999/xlink" x="0px" y="0px"
	 width="575.269px" height="575.269px" viewBox="0 0 575.269 575.269" style="enable-background:new 0 0 575.269 575.269;"
	 xml:space="preserve">
<g>
	<path d="M545.146,223.108l-89.254-27.43v-66.5c0-3.77-2.143-7.222-5.521-8.886L209.304,1.025c0,0-2.154-1.2-5.092-1.004
		c-2.925,0.196-5.067,1.812-5.067,1.812L27.259,124.417c-2.607,1.86-4.149,4.872-4.149,8.078V471.14c0,3.623,1.971,6.952,5.141,8.69
		l171.898,94.199c0,0,1.971,1.102,4.149,1.224c2.167,0.135,4.149-0.648,4.149-0.648l241.055-91.641l96.268-36.61
		c3.855-1.469,6.39-5.153,6.39-9.277V232.594C552.146,228.236,549.319,224.393,545.146,223.108z M64.652,406.451
		c0,1.028-0.478,2.008-1.297,2.632c-0.587,0.44-1.273,0.673-1.995,0.673c-0.294,0-0.6-0.036-0.894-0.122l-19.511-5.41
		c-1.42-0.392-2.411-1.701-2.411-3.194v-49.964c0-0.931,0.392-1.812,1.089-2.448c0.686-0.624,1.616-0.93,2.534-0.832l19.511,1.897
		c1.689,0.171,2.974,1.591,2.974,3.292V406.451z M64.652,299.486c0,1.726-1.31,3.157-3.036,3.305l-19.51,1.604
		c-0.086,0.012-0.184,0.012-0.257,0.012c-0.832,0-1.64-0.306-2.252-0.869c-0.686-0.624-1.065-1.505-1.065-2.423v-49.977
		c0-1.506,1.016-2.815,2.46-3.195l19.511-5.128c0.992-0.257,2.056-0.049,2.864,0.575c0.808,0.636,1.273,1.604,1.273,2.619v53.478
		H64.652z M64.652,192.52c0,1.298-0.759,2.485-1.958,3.023l-19.51,8.642c-0.429,0.184-0.881,0.269-1.334,0.269
		c-0.636,0-1.273-0.184-1.799-0.539c-0.942-0.6-1.505-1.652-1.505-2.766v-49.976c0-1.138,0.587-2.203,1.555-2.803l19.498-12.142
		c1.028-0.649,2.301-0.673,3.354-0.086c1.04,0.576,1.689,1.689,1.689,2.876v53.501H64.652z M113.245,419.952
		c0,1.04-0.478,2.008-1.297,2.644c-0.575,0.44-1.297,0.674-1.995,0.674c-0.294,0-0.6-0.037-0.881-0.123l-26.145-7.271
		c-1.432-0.392-2.424-1.701-2.424-3.183v-57.527c0-0.931,0.392-1.824,1.089-2.448c0.698-0.637,1.616-0.931,2.546-0.845l26.145,2.559
		c1.689,0.171,2.974,1.591,2.974,3.28v62.24H113.245z M113.245,295.472c0,1.726-1.31,3.157-3.023,3.305l-26.145,2.154
		c-0.098,0.012-0.184,0.012-0.269,0.012c-0.82,0-1.628-0.306-2.24-0.869c-0.685-0.624-1.077-1.505-1.077-2.423v-57.529
		c0-1.505,1.016-2.815,2.473-3.207l26.132-6.867c0.992-0.257,2.056-0.049,2.864,0.588c0.808,0.624,1.273,1.591,1.273,2.619v62.217
		H113.245z M113.245,170.99c0,1.31-0.759,2.485-1.958,3.023L85.142,185.58c-0.428,0.196-0.881,0.282-1.334,0.282
		c-0.637,0-1.261-0.184-1.799-0.539c-0.93-0.612-1.506-1.653-1.506-2.779v-57.528c0-1.126,0.6-2.191,1.567-2.791l26.132-16.292
		c1.028-0.637,2.313-0.673,3.354-0.086c1.053,0.587,1.701,1.689,1.701,2.889v62.252H113.245z M180.895,438.729
		c0,0.979-0.379,1.896-1.077,2.595c-1.199,1.212-2.839,1.224-3.378,1.224c-0.012,0-0.012,0-0.012,0
		c-6.524,0-31.812-9.094-36.806-10.93c-1.298-0.478-2.179-1.727-2.179-3.109v-67.785c0-0.931,0.392-1.823,1.089-2.448
		c0.685-0.636,1.615-0.93,2.534-0.845l36.842,3.599c1.701,0.172,2.986,1.592,2.986,3.306
		C180.895,365.019,180.871,435.558,180.895,438.729z M180.895,289.89c0,1.726-1.322,3.158-3.036,3.305l-36.842,3.036
		c-0.085,0.012-0.184,0.012-0.269,0.012c-0.833,0-1.64-0.306-2.252-0.869c-0.685-0.636-1.065-1.505-1.065-2.436v-67.786
		c0-1.505,1.016-2.815,2.46-3.207l36.842-9.67c0.979-0.257,2.044-0.049,2.852,0.576c0.808,0.636,1.297,1.603,1.297,2.619v74.419
		H180.895z M180.895,141.039c0,1.31-0.783,2.485-1.971,3.023l-36.83,16.304c-0.428,0.196-0.881,0.281-1.334,0.281
		c-0.637,0-1.261-0.184-1.812-0.538c-0.942-0.612-1.505-1.653-1.505-2.779V89.557c0-1.138,0.587-2.203,1.554-2.803l36.842-22.95
		c1.016-0.636,2.289-0.673,3.342-0.085s1.713,1.701,1.713,2.889V141.039z M327.31,103.927c0-1.114,0.563-2.154,1.494-2.767
		c0.93-0.612,2.104-0.71,3.133-0.269l39.303,17.001c1.225,0.526,1.995,1.726,1.995,3.035v58.715c0,1.053-0.489,2.032-1.334,2.656
		c-0.575,0.428-1.273,0.661-1.971,0.661c-0.318,0-0.648-0.049-0.967-0.159l-39.315-12.069c-1.383-0.428-2.338-1.713-2.338-3.17
		V103.927L327.31,103.927z M327.31,231.199c0-0.979,0.441-1.91,1.2-2.546c0.759-0.625,1.75-0.881,2.717-0.71l39.303,7.16
		c1.579,0.282,2.718,1.665,2.718,3.268v59.255c0,0.905-0.38,1.786-1.053,2.411c-0.612,0.575-1.42,0.881-2.265,0.881
		c-0.073,0-0.159,0-0.221,0l-39.314-2.791c-1.726-0.134-3.072-1.566-3.072-3.305v-63.624H327.31z M224.959,59.692
		c0-1.114,0.563-2.154,1.493-2.767c0.931-0.612,2.105-0.722,3.134-0.281l55.839,24.149c1.224,0.526,1.995,1.714,1.995,3.036v69.438
		c0,1.041-0.49,2.032-1.334,2.656c-0.576,0.429-1.273,0.649-1.958,0.649c-0.331,0-0.661-0.049-0.979-0.147l-55.839-17.16
		c-1.383-0.417-2.338-1.714-2.338-3.158V59.692H224.959z M224.959,288.96v-76.427c0-0.979,0.441-1.91,1.2-2.534
		c0.759-0.637,1.75-0.894,2.717-0.722l55.839,10.184c1.579,0.281,2.717,1.652,2.717,3.256v69.438c0,0.905-0.367,1.787-1.041,2.399
		c-0.612,0.587-1.42,0.894-2.252,0.894c-0.074,0-0.135,0-0.196,0l-55.851-3.207C226.33,292.167,224.959,290.722,224.959,288.96z
		 M333.932,517.542c0,1.37-0.845,2.595-2.142,3.084l-73.098,27.797c-0.367,0.147-0.771,0.221-1.175,0.221
		c-0.661,0-1.31-0.196-1.873-0.588c-0.894-0.611-1.42-1.628-1.42-2.717V363.403c0-1.738,1.334-3.183,3.072-3.293l73.097-4.944
		c0.931-0.049,1.812,0.257,2.484,0.881c0.674,0.637,1.053,1.506,1.053,2.411V517.542z M422.011,484.065
		c0,1.371-0.845,2.595-2.13,3.084l-48.764,18.544c-0.38,0.146-0.783,0.221-1.188,0.221c-0.661,0-1.31-0.208-1.86-0.588
		c-0.894-0.624-1.433-1.628-1.433-2.718V355.802c0-1.737,1.347-3.182,3.072-3.292l48.765-3.317c0.93-0.049,1.823,0.258,2.484,0.882
		c0.674,0.636,1.041,1.505,1.041,2.411v131.58H422.011z M436.099,300.673c0,0.906-0.379,1.787-1.04,2.399
		c-0.624,0.588-1.432,0.906-2.265,0.906c-0.061,0-0.135,0-0.195-0.013l-29.181-1.665c-1.737-0.109-3.108-1.554-3.108-3.316v-54.505
		c0-0.979,0.428-1.91,1.188-2.534c0.759-0.637,1.75-0.894,2.717-0.722l29.168,5.324c1.579,0.294,2.729,1.652,2.729,3.256v50.87
		H436.099z M436.099,198.958c0,1.04-0.501,2.032-1.346,2.656c-0.575,0.429-1.273,0.649-1.959,0.649c-0.318,0-0.66-0.049-0.967-0.147
		l-29.18-8.959c-1.384-0.416-2.326-1.714-2.326-3.158v-54.517c0-1.114,0.551-2.154,1.481-2.767c0.931-0.612,2.105-0.71,3.134-0.281
		l29.18,12.619c1.212,0.514,1.995,1.714,1.995,3.036v50.87H436.099z M494.398,391.176c0,1.579-1.126,2.938-2.681,3.243
		l-21.188,4.089c-0.221,0.049-0.416,0.061-0.624,0.061c-0.759,0-1.518-0.257-2.118-0.759c-0.759-0.636-1.199-1.566-1.199-2.546
		v-46.23c0-1.737,1.347-3.182,3.085-3.305l21.188-1.432c0.942-0.062,1.823,0.257,2.496,0.881c0.674,0.637,1.041,1.506,1.041,2.411
		V391.176L494.398,391.176z M494.398,304.027c0,0.905-0.367,1.787-1.028,2.398c-0.624,0.575-1.432,0.894-2.276,0.894
		c-0.073,0-0.135,0-0.196,0l-21.188-1.224c-1.763-0.098-3.121-1.542-3.121-3.305v-46.219c0-0.979,0.429-1.91,1.188-2.534
		c0.759-0.637,1.75-0.894,2.717-0.722l21.188,3.855c1.579,0.281,2.718,1.652,2.718,3.256V304.027z M530.249,384.272
		c0,1.579-1.138,2.938-2.692,3.243l-16.952,3.281c-0.209,0.036-0.417,0.061-0.612,0.061c-0.771,0-1.506-0.257-2.105-0.759
		c-0.771-0.624-1.212-1.555-1.212-2.546v-41.212c0-1.738,1.347-3.183,3.085-3.293l16.939-1.15c0.931-0.061,1.812,0.257,2.485,0.882
		c0.673,0.624,1.053,1.505,1.053,2.411v39.082H530.249z M530.249,306.083c0,0.906-0.379,1.775-1.04,2.399
		c-0.624,0.575-1.433,0.894-2.276,0.894c-0.062,0-0.123,0-0.196,0l-16.94-0.979c-1.763-0.098-3.121-1.542-3.121-3.305v-40.686
		c0-0.967,0.416-1.873,1.139-2.509c0.746-0.625,1.713-0.906,2.656-0.759l16.952,2.57c1.628,0.257,2.815,1.64,2.815,3.28v39.095
		H530.249z"/>
</g>
<g>
</g>
<g>
</g>
<g>
</g>
<g>
</g>
<g>
</g>
<g>
</g>
<g>
</g>
<g>
</g>
<g>
</g>
<g>
</g>
<g>
</g>
<g>
</g>
<g>
</g>
<g>
</g>
<g>
</g>
</svg>
